<svg xmlns="http://www.w3.org/2000/svg" viewBox="0 0 49.03 41.4">
    <defs>
        <style>.brain-svg{fill:#959595;}</style>
    </defs>
    <title>brain</title>
    <path class="brain-svg"
          d="M33.58,44.17l-0.29-3.1A3.58,3.58,0,0,0,36,39.66a5.13,5.13,0,0,0,7.67-4,5.14,5.14,0,0,0,4.55-4,8.42,8.42,0,0,0,1.34-4.58A8.57,8.57,0,0,0,49.25,25a8.6,8.6,0,0,0,.27-2.13,8.47,8.47,0,0,0-5-7.71A8.48,8.48,0,0,0,39,9a8.47,8.47,0,0,0-8.82-3.62A3.15,3.15,0,0,0,24.94,5a4.88,4.88,0,0,0-5.77.75A4.88,4.88,0,0,0,13.3,7.56a8.93,8.93,0,0,0-1.11-.07A8.47,8.47,0,0,0,4.8,11.81,8.47,8.47,0,0,0,1.62,23.43,8.48,8.48,0,0,0,10,30.9h0.28A8.47,8.47,0,0,0,22.56,34a8.49,8.49,0,0,0,4.79,4.31l4.59,6.85Z"
          transform="translate(-0.48 -3.79)"/>
    <path class="brain-svg"
          d="M37.2,33.48a0.49,0.49,0,0,1,0-1,6.18,6.18,0,0,0,6.17-6.17,0.49,0.49,0,0,1,1,0A7.16,7.16,0,0,1,37.2,33.48Z"
          transform="translate(-0.48 -3.79)"/>
    <path class="brain-svg"
          d="M5.69,19.59A0.49,0.49,0,0,1,5.2,19.1a4.3,4.3,0,0,1,4.3-4.3,3.32,3.32,0,0,0,3.32-3.32,0.49,0.49,0,0,1,1,0,4.3,4.3,0,0,1-4.3,4.3A3.32,3.32,0,0,0,6.18,19.1,0.49,0.49,0,0,1,5.69,19.59Z"
          transform="translate(-0.48 -3.79)"/>
    <path class="brain-svg"
          d="M17.57,28.77l-0.14,0a0.49,0.49,0,0,1-.34-0.61,9.81,9.81,0,0,1,12.14-6.71,8.84,8.84,0,0,0,10.93-6,0.49,0.49,0,1,1,.94.27A9.82,9.82,0,0,1,29,22.37a8.83,8.83,0,0,0-10.93,6A0.49,0.49,0,0,1,17.57,28.77Z"
          transform="translate(-0.48 -3.79)"/>
    <path class="brain-svg"
          d="M27.38,31.44a0.49,0.49,0,0,1-.45-0.69,5.78,5.78,0,0,1,7.62-3,0.49,0.49,0,1,1-.4.9,4.8,4.8,0,0,0-6.33,2.45A0.49,0.49,0,0,1,27.38,31.44Z"
          transform="translate(-0.48 -3.79)"/>
    <path class="brain-svg"
          d="M36.21,15.71a0.49,0.49,0,0,1-.49-0.49,4.8,4.8,0,0,0-4.8-4.8,0.49,0.49,0,1,1,0-1,5.79,5.79,0,0,1,5.78,5.78A0.49,0.49,0,0,1,36.21,15.71Z"
          transform="translate(-0.48 -3.79)"/>
    <path class="brain-svg"
          d="M16.78,16.8A0.49,0.49,0,0,1,16.44,16a9,9,0,0,1,6.42-2.66h0A9,9,0,0,1,29.28,16a0.49,0.49,0,0,1-.69.69,8,8,0,0,0-5.72-2.37h0a8,8,0,0,0-5.73,2.37A0.49,0.49,0,0,1,16.78,16.8Z"
          transform="translate(-0.48 -3.79)"/>
</svg>