<svg xmlns="http://www.w3.org/2000/svg" viewBox="0 0 50.14 42.27">
    <defs>
        <style>.dog-svg-1{fill:none;}.dog-svg-2{fill:#959595;}</style>
    </defs>
    <path class="dog-svg-1"
          d="M25,46.12c-8.09,0-16.18,0-24.26,0-0.66,0-.8-0.15-0.8-0.8Q0,25-.07,4.67c0-.66.15-0.8,0.8-0.8q24.26,0,48.53,0c0.66,0,.8.15,0.8,0.8q0,20.33,0,40.66c0,0.66-.15.81-0.8,0.8C41.18,46.11,33.09,46.12,25,46.12ZM19.4,37a20.1,20.1,0,0,1,0-3.23,1,1,0,0,1,.85-1.12c1.47-.4,2.89-1,4.36-1.35a12.9,12.9,0,0,1,4-.7,2.4,2.4,0,0,1,1.79.69c1.19,1.41,2.31,2.88,3.45,4.34C34.7,36.77,35.44,38,37,38.35a3.93,3.93,0,0,1,1.8,1,1.39,1.39,0,0,1,.48,1.5,1.23,1.23,0,0,0,1,1.72,3.08,3.08,0,0,0,2.05-.08,0.77,0.77,0,0,1,1.06.08,1,1,0,0,1,.05,1.09,1.08,1.08,0,0,0,1,1.66c1.22,0.13,2.47.25,3.33-1a2.15,2.15,0,0,1,.5-0.41,1.86,1.86,0,0,0,.59-2.79c-0.21-.34-0.27-0.75-0.45-1.05-0.62-1-.86-2.25-2-3.05a9.39,9.39,0,0,1-2.8-2.52,26.08,26.08,0,0,1-3.28-7.38,9.25,9.25,0,0,0-2.24-4.49,1.9,1.9,0,0,1-.51-1.8c0.22-1.2-.28-1.68-1.52-1.42a6.52,6.52,0,0,1-2.08.09c-3-.33-6-0.6-9-1-3.37-.49-6.35-1.76-8.36-4.74-1-1.44-2.06-2.81-3.15-4.16A5,5,0,0,0,12,8.17a4.22,4.22,0,0,1-1.55-1.56,8.45,8.45,0,0,0-.88-1.14C9.31,5.21,9.09,4.72,8.63,4.92s-0.13.54-.09,0.82A0.38,0.38,0,0,1,8.48,6C7.23,6,8,6.71,8.11,7.14a0.68,0.68,0,0,1-.24.9,16.59,16.59,0,0,1-2.2,1.4,3.75,3.75,0,0,0-2.12,2.19,3.07,3.07,0,0,1-1.5,1.73c-0.84.45-1.29,1-.81,2a2.52,2.52,0,0,1,0,.9,4.22,4.22,0,0,0,.1,1.43,9.5,9.5,0,0,1,.77,3.51,1.36,1.36,0,0,0,.78,1.14,10.83,10.83,0,0,0,1,.55c1.09,0.52,1.52.42,2.13-.64C7,20.61,8,19,7.95,17a1.2,1.2,0,0,1,.64-0.79C8.8,16,9,16.09,9.08,16.35a18.9,18.9,0,0,1,1.61,4.54c0.18,1.43.1,2.89,0.34,4.3,0.44,2.57,1.21,5.07,1.54,7.67a10.89,10.89,0,0,1,.08,2.85,11.29,11.29,0,0,0,0,4,1.47,1.47,0,0,1-.44,1.64,1.62,1.62,0,0,0-.25,2,2.18,2.18,0,0,0,2.2,1.32C16.87,45,18.38,44.47,19,42A21.39,21.39,0,0,0,19.4,37Z"
          transform="translate(0.07 -3.87)"/>
    <path class="dog-svg-2"
          d="M19.4,37A21.4,21.4,0,0,1,19,42c-0.64,2.5-2.16,3-4.83,2.76A2.18,2.18,0,0,1,12,43.41a1.62,1.62,0,0,1,.25-2,1.47,1.47,0,0,0,.44-1.64,11.29,11.29,0,0,1,0-4,10.87,10.87,0,0,0-.08-2.85c-0.33-2.6-1.1-5.1-1.54-7.67-0.24-1.41-.16-2.86-0.34-4.3a18.9,18.9,0,0,0-1.61-4.54C9,16.09,8.8,16,8.59,16.19a1.2,1.2,0,0,0-.64.79C8,19,7,20.61,6.05,22.25c-0.61,1.06-1,1.16-2.13.64a11,11,0,0,1-1-.55,1.36,1.36,0,0,1-.78-1.14,9.5,9.5,0,0,0-.77-3.51,4.25,4.25,0,0,1-.1-1.43,2.53,2.53,0,0,0,0-.9c-0.48-1,0-1.55.81-2a3.07,3.07,0,0,0,1.5-1.73A3.75,3.75,0,0,1,5.67,9.45,16.64,16.64,0,0,0,7.87,8a0.68,0.68,0,0,0,.24-0.9C8,6.71,7.23,6,8.48,6a0.38,0.38,0,0,0,.06-0.23c0-.29-0.27-0.67.09-0.82s0.68,0.28.93,0.55a8.46,8.46,0,0,1,.88,1.14A4.22,4.22,0,0,0,12,8.16,5,5,0,0,1,13.5,9.59c1.09,1.35,2.18,2.72,3.15,4.16,2,3,5,4.25,8.36,4.74,3,0.43,6,.7,9,1A6.53,6.53,0,0,0,36,19.44c1.25-.26,1.74.21,1.52,1.42a1.9,1.9,0,0,0,.51,1.8,9.24,9.24,0,0,1,2.24,4.49,26.05,26.05,0,0,0,3.28,7.38A9.39,9.39,0,0,0,46.4,37c1.17,0.8,1.41,2,2,3.05,0.18,0.3.25,0.71,0.45,1.05a1.86,1.86,0,0,1-.59,2.79,2.14,2.14,0,0,0-.5.41c-0.85,1.22-2.11,1.09-3.33,1a1.08,1.08,0,0,1-1-1.66,1,1,0,0,0-.05-1.09,0.77,0.77,0,0,0-1.06-.08,3.08,3.08,0,0,1-2.05.08,1.23,1.23,0,0,1-1-1.72,1.39,1.39,0,0,0-.48-1.5,3.93,3.93,0,0,0-1.8-1c-1.57-.35-2.31-1.58-3.19-2.7-1.14-1.46-2.26-2.93-3.45-4.34a2.4,2.4,0,0,0-1.79-.69,12.92,12.92,0,0,0-4,.7c-1.47.4-2.89,1-4.36,1.35a1,1,0,0,0-.85,1.12A20,20,0,0,0,19.4,37Z"
          transform="translate(0.07 -3.87)"/>
</svg>