<svg xmlns="http://www.w3.org/2000/svg" viewBox="0 0 37.91 49.89">
    <defs>
        <style>.ghost-svg{fill:#959595;}</style>
    </defs>
    <path class="ghost-svg"
          d="M24.95,0.06C14.5,0.06,6,8.25,6,18.28V45.22a4.67,4.67,0,1,0,9.35.05v-2.1a2.47,2.47,0,0,1,4.94,0v2.1a4.67,4.67,0,1,0,9.35,0v-2.1a2.47,2.47,0,0,1,4.94,0v2.1a4.67,4.67,0,0,0,9.35,0v-27C43.85,8.25,35.4.06,24.95,0.06Zm-12,19a1.1,1.1,0,1,1,0-2.21h7.77A1.11,1.11,0,0,1,21.8,18a0.47,0.47,0,0,1-.05.26,3.25,3.25,0,0,1-6.3.84H12.92Zm4.73,12.34A10.8,10.8,0,0,1,24.95,29a11.32,11.32,0,0,1,7.3,2.42m5.62-13.23a3.25,3.25,0,0,1-6.3.84H29a1.1,1.1,0,0,1,0-2.21h7.77a1.11,1.11,0,0,1,1.1,1.1A0.23,0.23,0,0,1,37.87,18.17Z"
          transform="translate(-6.04 -0.06)"/>
</svg>