<svg xmlns="http://www.w3.org/2000/svg" viewBox="0 0 49.2 49.3">
    <defs>
        <style>.snowboard-svg{fill:#959595;}</style>
    </defs>
    <path class="snowboard-svg"
          d="M46.56,3.4A10.43,10.43,0,0,0,39.21.33,9.79,9.79,0,0,0,32.07,3.4c-1,1-2.65,2.86-4.39,5-3.27,3.67-7.35,8.27-9.19,10.1s-6.43,5.92-10.1,9.19l-4.9,4.39A9.51,9.51,0,0,0,.43,39a10.24,10.24,0,0,0,3.06,7.55,10.43,10.43,0,0,0,7.35,3.06A9.79,9.79,0,0,0,18,46.57c1-1,2.55-2.86,4.39-4.9,3.27-3.67,7.35-8.27,9.19-10.21s6.43-5.92,10.1-9.19l4.9-4.39a9.51,9.51,0,0,0,3.06-6.94A10.32,10.32,0,0,0,46.56,3.4ZM24.92,30.75a2,2,0,0,1-2.86,0l-2.86-2.86A2,2,0,0,1,22.06,25l2.86,2.86A2,2,0,0,1,24.92,30.75Zm7.25-7.14a2,2,0,0,1-2.86,0l-2.86-2.86a2,2,0,0,1,2.86-2.86l2.86,2.86A2,2,0,0,1,32.17,23.6Z"
          transform="translate(-0.42 -0.33)"/>
</svg>