<svg xmlns="http://www.w3.org/2000/svg" viewBox="0 0 49.67 42.07">
    <defs>
        <style>.suitcase-svg{fill:#959595;}</style>
    </defs>
    <path class="suitcase-svg" d="M44.78,11.56H42.09V46h2.69a5,5,0,0,0,5.05-5V16.59A5,5,0,0,0,44.78,11.56Z"
          transform="translate(-0.17 -3.96)"/>
    <path class="suitcase-svg"
          d="M36.36,11.15V7.91A3.93,3.93,0,0,0,32.43,4H16.8a3.94,3.94,0,0,0-3.95,3.95v3.24c0,0.13,0,.27,0,0.4h-3V46h30V11.56H36.34C36.36,11.43,36.36,11.29,36.36,11.15ZM16.47,8.26c0-.33.07-0.43,0.33-0.43H32.43c0.26,0,.32.1,0.32,0.43v3.29H16.47V8.26Zm-1.08,8.89a2.61,2.61,0,1,1-2.61,2.61A2.61,2.61,0,0,1,15.39,17.15ZM11.18,27.94a2.62,2.62,0,1,1,2.62,2.62A2.62,2.62,0,0,1,11.18,27.94ZM26.32,39.76l-2,3.41a0.53,0.53,0,0,1-.72.19l-10.1-5.84a0.53,0.53,0,0,1-.19-0.72l2-3.41a0.53,0.53,0,0,1,.42-0.26,0.52,0.52,0,0,1,.3.07L26.13,39A0.53,0.53,0,0,1,26.32,39.76Zm7-1.25a4.21,4.21,0,1,1,4.2-4.21A4.21,4.21,0,0,1,33.35,38.51ZM37,18.18a0.53,0.53,0,0,1-.2.72L26.7,24.72A0.53,0.53,0,0,1,26,24.53l-2-3.41a0.53,0.53,0,0,1,.19-0.72l10.1-5.83a0.53,0.53,0,0,1,.2-0.07h0a0.53,0.53,0,0,1,.52.26Z"
          transform="translate(-0.17 -3.96)"/>
    <path class="suitcase-svg" d="M0.17,16.59V41a5,5,0,0,0,5,5H7.74V11.56H5.2A5,5,0,0,0,.17,16.59Z"
          transform="translate(-0.17 -3.96)"/>
</svg>