<svg xmlns="http://www.w3.org/2000/svg" viewBox="0 0 49.65 49.65">
    <path class="behance-svg"
          d="M20.89,20.69c0-1.9-1.29-1.9-1.29-1.9H14.28v4.08h5C20.13,22.86,20.89,22.59,20.89,20.69Z"/>
    <path class="behance-svg" d="M33.22,22.86A3.27,3.27,0,0,0,30,25.68h6A2.72,2.72,0,0,0,33.22,22.86Z"/>
    <path class="behance-svg"
          d="M19.6,25.68H14.28v4.89h5.05a2.06,2.06,0,0,0,2.2-2.37C21.53,25.66,19.6,25.68,19.6,25.68Z"/>
    <path class="behance-svg"
          d="M24.83,0A24.83,24.83,0,1,0,49.65,24.83,24.85,24.85,0,0,0,24.83,0Zm4.39,16.61h7.54v2.25H29.22V16.61Zm-3.81,11.8c0,5.58-5.81,5.39-5.81,5.39H10.09V15.54H19.6c2.89,0,5.17,1.6,5.17,4.87A3.17,3.17,0,0,1,22,23.88C25.66,23.88,25.41,28.42,25.41,28.42Zm14.11-.3H30a3,3,0,0,0,3.22,3.18c3,0,2.93-2,2.93-2h3.22c0,5.22-6.25,4.86-6.25,4.86-7.5,0-7-7-7-7s0-7,7-7C40.55,20.19,39.51,28.12,39.51,28.12Z"/>
</svg>