<svg xmlns="http://www.w3.org/2000/svg" viewBox="0 0 463.11 469.6">
    <g id="skype">
        <path d="M453,284.64a219.71,219.71,0,0,0,5.14-47.38c0-122-98.91-220.85-220.9-220.85a222.1,222.1,0,0,0-37.78,3.24A128.06,128.06,0,0,0,20.86,192.86a221.74,221.74,0,0,0-4.46,44.4c0,122,98.88,220.85,220.87,220.85a222.72,222.72,0,0,0,40.43-3.71A128.08,128.08,0,0,0,453,284.64ZM350.55,342.8c-10.23,14.46-25.31,25.94-44.89,34.07-19.36,8-42.58,12.13-69,12.13-31.74,0-58.33-5.58-79.06-16.59a103.69,103.69,0,0,1-36.38-32.29c-9.38-13.54-14.15-27-14.15-39.89a27.71,27.71,0,0,1,9.23-20.86c6-5.69,13.78-8.57,23-8.57a29.27,29.27,0,0,1,19.48,6.78c5,4.3,9.41,10.66,12.94,18.89A112.09,112.09,0,0,0,184.42,319c4.3,5.72,10.57,10.55,18.52,14.3S221.74,339,235,339c18.3,0,33.26-3.88,44.48-11.59,11-7.48,16.36-16.51,16.36-27.54,0-8.73-2.81-15.59-8.54-21-6-5.6-13.93-10-23.57-13-10-3.13-23.66-6.52-40.49-10.05-22.94-4.9-42.43-10.72-57.89-17.3-15.87-6.75-28.62-16.09-38-27.77-9.48-11.85-14.31-26.76-14.31-44.26a71.85,71.85,0,0,1,15-44.69C138,108.95,152.41,98.94,171,92.08c18.33-6.77,40.12-10.2,64.81-10.2,19.73,0,37.1,2.26,51.56,6.76s26.84,10.64,36.47,18.17,16.93,15.74,21.48,24.16,6.89,17,6.89,25.2c0,7.89-3.05,15.06-9,21.31A30.38,30.38,0,0,1,320.43,187c-8.17,0-14.56-2-19-5.92-4.15-3.66-8.45-9.34-13.19-17.57-5.52-10.46-12.19-18.68-19.86-24.5-7.39-5.66-19.8-8.51-36.85-8.51-15.84,0-28.71,3.18-38.28,9.43-9.23,6-13.68,13-13.68,21.18a19.43,19.43,0,0,0,4.4,12.84,40.38,40.38,0,0,0,13.19,10,98.52,98.52,0,0,0,17.77,6.89c6.14,1.68,16.43,4.22,30.55,7.48,17.89,3.83,34.32,8.12,48.85,12.77,14.68,4.71,27.4,10.52,37.78,17.26A75.37,75.37,0,0,1,357,254.63c6,10.61,9,23.68,9,38.9A84,84,0,0,1,350.55,342.8Z"
              transform="translate(-3.24)"/>
    </g>
</svg>