<svg id="Layer_1" data-name="Layer 1" xmlns="http://www.w3.org/2000/svg" viewBox="0 0 44 44">
    <defs>
        <style>.cls-1{fill:#00b100;}</style>
    </defs>
    <title>checked</title>
    <path class="cls-1"
          d="M22,0A22,22,0,1,0,44,22,21.94,21.94,0,0,0,22,0ZM34.7,15.1h0l-16,16.6a0.91,0.91,0,0,1-.7.3,0.78,0.78,0,0,1-.7-0.3L9.5,23.3l-0.2-.2a1,1,0,0,1,0-1.4l1.4-1.4a1,1,0,0,1,1.4,0l0.1,0.1,5.5,5.9a0.48,0.48,0,0,0,.7,0L31.8,12.4h0.1a1,1,0,0,1,1.4,0l1.4,1.4A0.85,0.85,0,0,1,34.7,15.1Z"/>
</svg>